<svg xmlns="http://www.w3.org/2000/svg" version="1.1" viewBox="0 9 2048 490">
<path transform="translate(0,455)" d="m0 0 623 3 137 1 90 1 255 1 196 1 76 1 671 3v33h-194l-232-2-307-1-176-1-514-3-625-4z" fill="#FEFEFE"/>
<path transform="translate(91,9)" d="m0 0 7 1 23 11 16 8 20 7 19 5 23 5 25 4 32 8 21 8 15 8 13 11 4 2 10-9 15-9 14-6 15-5 30-7 48-9 19-5 15-5 20-9 26-13 5-1 1 4 1 64v133l-1 82-3 5-15 5-25 5 4 8 36-2h10l1-51 1-201 1-1h7l2 4 1 11 1 45v101l-1 95-1 7-6 2-35 2-10 1 7 13 35 2 16 2 1-63 1-143 1-46 2-3 8-1 1 49v54l-1 164-2 2-25-1-30-3 9 20 2 5v7l-7 6-12 6-11 2-5-3-6-9-8-17-8-19-2-3h-75l-24 3-18 4-3 3-9 12-7 4-12 2h-10l-12-2-6-3-5-5-6-9-13-4-21-4-22-2h-58l-40 3-51 5-18 1-1-1-1-48v-191l1-26 1-1h10l1 2-1 253 23-3 71-6 20-1h53l20 2 26 7 13 5 2 6 2 5 8 3h17l9-4 2-4 2-7 11-4 21-5 18-3 19-1h30l20 1 8 2-4-11h-62l-20 3-23 6-15 6-16 9-6 2-9-1-19-10-24-9-18-4-26-2h-80l-34-1-25-2-4-2-2-7-1-12-1-49v-104l1-59 1-21 1-7 2-2 8-1 1 1v251h14l24 1h101l24 3 19 4 17 6 26 13 7-1 13-8 20-8 20-5 20-3 12-1h39l9 1-1-7h-48l-24 2-19 3-17 5-16 8-10 7h-7l-11-8-17-9-16-5-21-5-16-2-102-1-14-2-13-4-4-4-1-4-1-15v-170l1-83 1-10zm11 18v259l8 2 22 2 83 2 23 2 24 4 15 5 17 8 7 4 2-1v-212l-4-7-10-8-14-8-14-6-27-8-70-14-23-7-21-9-17-8zm410 1-26 12-20 7-32 8-56 11-24 7-19 9-11 8-9 8-1 10-1 206 5-1 14-7 15-5 16-3 26-2h52l1-2-10-23-5-1-14 2h-11l-19-4-14-7-9-7-10-9-10-14-7-15-4-13-1-10 2-15 5-17 10-19 11-13 13-10 13-6 15-4 10-1h13l14 2 12 5 12 7 11 9 8 9 8 14 5 12 3 16v12l-2 15-4 13-7 13-8 10-8 8-8 6 2 6 9 14 10 15 2 2 9-1 19-4 7-3 1-3v-257zm-106 91-13 2-12 4-11 6-11 10-9 13-6 12-4 16v16l4 16 8 15 9 12 12 9 15 7 11 3h21l17-4 16-8 12-10 7-10 6-12 4-14 1-13-2-15-5-14-8-14-9-10-10-7-10-5-14-4-9-1zm39 150m1 1 3 9 3 6 2 1-1-5-6-11zm11 24-3 3 1 6 12 27 17 41 7 17 8-1 8-5-1-5-20-39-21-42-3-2z" fill="#A012B1"/>
<path transform="translate(524,9)" d="m0 0h2l1 4 1 64v133l-1 82-3 5-15 5-25 5 4 8 36-2h10l1-51 1-201 1-1h7l2 4 1 11 1 45v101l-1 95-1 7-6 2-35 2-10 1 7 13 35 2 16 2 1-63 1-143 1-46 2-3 8-1 1 49v54l-1 164-2 2-25-1-30-3 9 20 2 5v7l-7 6-12 6-11 2-5-3-6-9-8-17-5-12 1-3 1 3 8-1 2-3 9 21 4 10v2l10-3 5-3-1-5-20-39-21-42 2-5 1-2h2l1-3 4 2 5 7 9-1 19-4 6-2 1-3v-115l1-142-29 13-20 7-32 8-56 11-24 7-19 9-11 8-8 7-1 10-1 188-1 10h-9l-1 8h-1v-212l-4-7-12-9-17-9-24-8-21-5-10-2v-1l12-1 2-3-3-4-4-2 3-1 32 8 21 8 15 8 13 11 4 2 10-9 15-9 14-6 15-5 30-7 48-9 19-5 15-5 20-9 26-13z" fill="#B914B4"/>
<path transform="translate(1185,61)" d="m0 0h7l5 6 9 21 12 30 10 26 9 20 4 4-1-23v-82l1-1h27l2 1 1 18v149l-1 14-1 1-11 1h-12l-5-6-9-19-19-47-9-20-6-12-2-1 1 100-2 4-14 1h-13l-2-3-1-7 1-63v-96l1-12 4-2z" fill="#FEFEFE"/>
<path transform="translate(1058,61)" d="m0 0h19l18 2 15 6 8 6 6 7 5 10 4 17v13l-3 13-5 9-7 9-10 10-3 2 1 6 14 28 10 19 10 22 1 5-1 1-26 1-6-2-10-19-11-24-11-23-1-3-4-1v19l-1 50-2 2-5 1h-19l-3-5v-170l2-8 3-2zm18 31-5 5-1 9v37l3 5h9l10-5 6-7 3-8 1-12-2-11-6-8-7-4-4-1z" fill="#FEFEFE"/>
<path transform="translate(1444,61)" d="m0 0h13l18 2 14 5 9 6 7 9 5 13 2 10v10l-3 10-9 14-3 4 1 5 7 6 6 9 5 12 2 9v15l-5 15-7 11-9 9-11 6-13 3h-38l-4-4-1-4v-153l1-14 3-6 1-1zm15 29v43l1 3 8-1 8-6 5-6 2-8-2-12-5-8-6-4-4-1zm9 72-6 2-2 5v39l2 6h8l10-6 4-5 1-4v-19l-4-10-6-7z" fill="#FEFEFE"/>
<path transform="translate(922,65)" d="m0 0 3 1 8 15 13 29 60 120 6 13v3h-182l2-6 12-22 17-32 35-70 15-33 8-15zm-1 34-5 8-16 33-10 19-25 50-9 15-1 5h69l38 1h24l-1-7-3-6-5-1h-99l15-30 10-21 12-22 5-10 1-5 3 3 18 40 7 15-2-1h-35l-5 6-2 4v4h46l1-3 4 4 3 1h8l5-1-1-6-9-16-18-34-12-25-5-10-4-9z" fill="#B80CDA"/>
<path transform="translate(1341,62)" d="m0 0h24l3 5 10 46 8 39 8 40 10 43 1 8-1 1-10 1h-15l-3-3-5-14-2-6-2-1-11-1h-24l-5 19-2 5h-28l-1-1 1-11 15-65 12-55 9-39 3-10zm9 77-2 2-9 39v8l10 1h12l1-1-1-11-8-35z" fill="#FEFEFE"/>
<path transform="translate(755,60)" d="m0 0h45l3 1v29l-1 1-44 1-2 38h42l2 1v28l-1 1-18 1h-24l-1 48 40 1 5 3 2 6v17l-3 5-4 2h-69l-2-1-1-4v-111l1-60 1-5 2-1z" fill="#FEFEFE"/>
<path transform="translate(91,9)" d="m0 0 7 1 23 11 16 8 20 7 19 5 23 5 19 3 8 4 3 5-3 3h-18l-44-9-23-7-21-9-17-8v211l-1 47 30 3 83 2 23 2 24 4 15 5 17 8 9 5v-7l1-2 8-1 1 1v9l9 3 4 2-1 3-14 9h-7l-11-8-17-9-16-5-21-5-16-2-102-1-14-2-13-4-4-4-1-4-1-15v-170l1-83 1-10z" fill="#7C0CB7"/>
<path transform="translate(1883,64)" d="m0 0h30l5 10 13 35 8 19 3-1 6-12 11-25 8-17 5-8 2-1h24l1 5-6 18-13 30-16 36-6 19-1 14-1 60-5 2h-20l-4-2-1-3v-69l-2-11-11-26-15-32-13-28-4-11z" fill="#FEFEFE"/>
<path transform="translate(1765,63)" d="m0 0h90l1 10v18l-2 1-29 1-1 153-3 1-20 1-5-1-1-2-1-14v-137l-21-1-7-2-3-4v-16z" fill="#FEFEFE"/>
<path transform="translate(623,62)" d="m0 0h30l2 7v145h37l5 1 1 3v26l-1 1-16 1h-57l-1-6z" fill="#FEFEFE"/>
<path transform="translate(1604,63)" d="m0 0h27l3 2 1 35v115l40 1 3 1v28l-1 1h-72l-2-5-2-112v-59l2-6z" fill="#FEFEFE"/>
<path transform="translate(77,60)" d="m0 0 4 1v251h14l24 1h101l24 3 19 4 17 6 8 4v2l5 2v8l2 4-3 1-17-8-21-7-14-3-26-2h-80l-34-1-25-2-4-2-2-7-1-12-1-49v-104l1-59 1-21 1-7 2-2z" fill="#7A0CB6"/>
<path transform="translate(1706,63)" d="m0 0h29l2 1 1 181-1 1-13 1h-18l-2-5-1-32v-125l1-21z" fill="#FEFEFE"/>
<path transform="translate(1544,63)" d="m0 0h29l3 1 1 8v173l-6 1-24 1-3-3-1-30v-126z" fill="#FEFEFE"/>
<path transform="translate(51,90)" d="m0 0h10l1 2-1 253 23-3 71-6 20-1h53l20 2 26 7 13 5 2 6v5l-5-1-6-4-10-2-10-1-26-3-14-1h-58l-40 3-51 5-18 1-1-1-1-48v-191l1-26z" fill="#7D0CB8"/>
<path transform="translate(420,46)" d="m0 0 21 2 2 4-9 4-56 11-24 7-19 9-11 8-8 7-1 10-1 188-1 10h-9l-1 8h-1v-212l-4-7-12-9-17-9-24-8-21-5-10-2v-1l12-1 2-3-3-4-4-2 3-1 32 8 21 8 15 8 13 11 4 2 10-9 15-9 14-6 15-5 30-7z" fill="#A012B1"/>
<path transform="translate(407,123)" d="m0 0 15 1 15 5 11 6 12 11 7 9 7 14 3 11v18l-4 15-7 14-11 12-9 7-12 6-13 3h-20l-13-3-13-7-10-9-7-9-6-10-5-14-1-6v-14l3-13 8-16 8-10 7-7 11-7 17-6zm-1 13-15 3-11 6-10 10-8 13-4 12v19l3 10 5 10 9 10 7 6 10 5 10 3h17l14-4 10-6 10-9 7-11 3-8 1-5v-19l-3-11-5-10-8-10-11-8-10-4-13-2z" fill="#A012B2"/>
<path transform="translate(561,89)" d="m0 0h5l1 49v54l-1 164-2 2-25-1-32-3-4-8 1-4h17l24 2 8 1 1-63 1-143 1-46 2-3z" fill="#9E13B0"/>
<path transform="translate(537,60)" d="m0 0h7l2 4 1 11 1 45v101l-1 95-1 7-6 2-35 2h-12l-1-5-1-1v-5l2-1 31-2h10l1-51 1-201z" fill="#B814B3"/>
<path transform="translate(1676,322)" d="m0 0h6l6 5 13 21 13 20 2-45h10l3 2v72l-1 1h-8l-8-7-12-19-10-17-4-4v37l-1 9-2 1h-8l-2-1-1-6v-23l1-31 1-13z" fill="#FEFEFE"/>
<path transform="translate(949,321)" d="m0 0h26l8 3 6 8 2 8-1 7-6 7 2 4 5 4 5 8 1 8-3 8-4 5-9 5-11 2h-22l-3-3-1-6v-62l2-5zm12 9-3 4-1 8 1 8 2 2h11l5-5 1-6-2-7-3-3-3-1zm-2 33-1 2v15l2 5 2 2h9l7-4 3-4v-9l-2-4-7-3z" fill="#FEFEFE"/>
<path transform="translate(1355,321)" d="m0 0h14l9 3 9 8 6 12 1 4v21l-4 13-7 9-8 5-10 2-13-1-10-5-8-9-4-10-1-4v-18l4-13 6-8 8-6zm1 13-6 4-4 7-1 4v22l4 10 7 5 3 1h7l7-4 3-4 2-9 1-13-2-12-3-6-6-5z" fill="#FEFEFE"/>
<path transform="translate(888,138)" d="m0 0 4 1v5l-5 10 1 5h2l-1 4-23 46-9 15-2 5h51l18 1v2l-10 2-5 3-6 8-7 1h-66l2-6 12-22 17-32 22-44z" fill="#A814F0"/>
<path transform="translate(921,127)" d="m0 0 4 4 18 40 7 14-1 2-2-1h-35l-4 5-3 9 6 1 2 4 11 5 3 3v3h-49l2-6 12-24 10-21 12-22 5-10z" fill="#B80CDA"/>
<path transform="translate(1613,322)" d="m0 0h22l10 3 6 4 6 9v13l-6 10-4 4 1 6 6 11 8 12v4h-8l-7-4-9-12-9-16 1-4 9-6 3-5v-8l-3-6-7-3h-8l-1 63-2 1h-10l-2-2v-70z" fill="#FEFEFE"/>
<path transform="translate(398,335)" d="m0 0h30l10 1 11 3 2 2 2-1-2 6-2 1-51 1-23 2-28 5-5 2-6 9-4 5-7 4-12 2h-10l-12-2-6-3-5-5-6-9-13-4-9-2v-1l17 1 11 3 6 4 5 1 8 3h17l9-4 2-4 2-7 11-4 21-5 18-3z" fill="#9F12B1"/>
<path transform="translate(900,320)" d="m0 0h7l4 4 7 19 11 37 4 12v5h-11l-3-3-5-12-2-1h-23l-5 15-1 1h-11l-1-2 14-48 7-19 4-6zm1 19-6 18-3 11 1 1h18l-3-15-5-15z" fill="#FEFEFE"/>
<path transform="translate(1561,322)" d="m0 0h12l3 3 21 69v3h-13l-4-9-1-6h-27l-2 11-3 5h-10l-1-5 20-65 3-5zm5 17-10 28v3h18l-1-10-5-21z" fill="#FEFEFE"/>
<path transform="translate(470,286)" d="m0 0 4 2 5 7v2h2l3 6v3l4 9 3 1 2 6 1 2 3 2-3 1 8 14 2 1 1 7 5 8 9 19 1 3v7l-7 6-12 6-11 2-5-3-6-9-8-17-5-12 1-3 1 3 8-1 2-3 9 21 4 10v2l10-3 5-3-1-5-20-39-21-42 2-5 1-2h2z" fill="#B914B6"/>
<path transform="translate(1489,322)" d="m0 0h23l14 1 1 1v9l-3 1h-26v18l23 1 1 3-1 8-1 1h-13l-9-1 1 20 25 1 5 2v9l-2 2h-39l-3-1-1-2v-70l1-2z" fill="#FDFDFD"/>
<path transform="translate(398,313)" d="m0 0h35l8 2 1 9-5 1-47 2-20 3-23 6-15 6-16 9-6 2-9-1-7-4-2-8 1-6-5-2 1-2 12 7 5 2 7-1 13-8 20-8 20-5 20-3z" fill="#9F12B2"/>
<path transform="translate(432,109)" d="m0 0 10 3 13 7 13 10 10 11 8 14 5 12 3 16v12l-2 15-4 13-7 13-8 10-9 9-2-1 1-3 1-5 2-1h-8l5-5 8-11 6-12 4-14 1-13-2-15-5-14-8-14-8-9-10-7-10-5-10-3v-2l4-2 6 1-7-9z" fill="#B914B3"/>
<path transform="translate(1225,321)" d="m0 0h9l3 1-2 6-17 37-3 12-1 17-1 2h-12l-1-2v-14l-2-11-15-33-7-14h15l3 3 11 27 3 2 11-23 4-8z" fill="#FEFEFE"/>
<path transform="translate(537,60)" d="m0 0h7l2 4-1 22-3 9-2 40 1 26 2-1 1 9-1 4h-1v11l1 27v2h-2l2 15-1 11 1 18-1 14 2 3-3 21-1 4h2l1-3h2l1-2v15l-2 9-3 4h-2l-2-10-2-6v-44l1-201z" fill="#9F13B0"/>
<path transform="translate(1118,322)" d="m0 0h54l1 9-4 2-18 1v62h-14l-1-1v-61h-10l-8-1-1-1v-8z" fill="#FEFEFE"/>
<path transform="translate(1268,322)" d="m0 0h27l24 1 1 1v8l-1 1-18 1v62l-1 1h-12l-2-1-1-61-16-1-3-2 1-9z" fill="#FEFEFE"/>
<path transform="translate(1433,322)" d="m0 0h11l3 3v23l-1 37 27 1 1 1v9l-1 1h-40l-2-4v-69z" fill="#FEFEFE"/>
<path transform="translate(446,135)" d="m0 0 4 2 8 7 8 9 8 16 3 11v18l-4 15-7 14-11 12-9 7-6 2 2-5h-2v-3l-2-1-1-3 11-8 7-8 6-11 2-9v-19l-3-11-5-10-8-10-8-6 2-1 13 4 2 1-7-9h-5z" fill="#B914B3"/>
<path transform="translate(389,295)" d="m0 0h40l10 2 3 5v3l-6 1-39 1-24 2-19 3-17 5-9 4-6-2-9-4 3-2 16-8 15-5 16-3z" fill="#9F12B1"/>
<path transform="translate(1039,322)" d="m0 0h14l1 62 26 2 1 1v9l-2 1h-36l-4-1-1-7z" fill="#FEFEFE"/>
<path transform="translate(435,278)" d="m0 0 2 1v2l5 1v2h2l3 3h4l1 4h-2l2 5 2 1 7 17 15 35 2 6-2 4h-8l-2-2-2-3-3-5-63-1v-1l53-1 1-5-2 1-1-2-11-3v-1h10l8 2-4-11-43-1v-1l33-1-1-9-8-1 4-1 9 1-1-7h-9v-2l5-1-1-4-3-4 4-2-6-14z" fill="#B914B3"/>
<path transform="translate(1092,322)" d="m0 0h14l1 1v47l-1 26-5 1h-7l-3-1v-73z" fill="#FEFEFE"/>
<path transform="translate(1010,322)" d="m0 0h12l1 1v73l-2 1h-7l-5-1-1-2v-19l1-52z" fill="#FEFEFE"/>
<path transform="translate(554,282)" d="m0 0h1l1 6 1 16 2 7v9l-1-2h-2v11l-1 3 3 1 1 5v14l1 2 4 1v-14l-4-4-1-3v-9l5 1 1-7h1v37l-2 2-25-1-32-3-4-8 1-4h17l24 2 8 1z" fill="#B914B3"/>
<path transform="translate(896,182)" d="m0 0 10 3h4l-1 4-3 6-1 5 6 1 2 4 11 5 3 3v3h-49l2-6 12-24 3-1z" fill="#A814F0"/>
<path transform="translate(561,89)" d="m0 0h5l1 49v54l-1 18h-1l-1-85-1-3-2-8-1 1-1 19-1 21v63l-1 23-1 8h-1v-110l1-46 2-3z" fill="#B913BB"/>
<path transform="translate(477,355)" d="m0 0 3 4 11 27v2l10-3 6-3 1 3v7l6-2-3 3-10 5-11 2-5-3-6-9-8-17-5-12 1-3 1 3 8-1z" fill="#B80CD8"/>
<path transform="translate(535,306)" d="m0 0 2 3 2 5 1 7 3-3 2-6h2l-1 11-6 2-35 2h-12l-1-5-1-1v-5l2-1 31-2h10z" fill="#B914B4"/>
<path transform="translate(470,286)" d="m0 0 4 2 5 7v2h2l3 6v3l4 9 3 1 2 6 1 2 3 2-3 1 8 14 2 1 1 7 4 6v2l-4-1-5-3-1-4-2-1v-6l-4-4v-2h-2v-3h-2l-2-4v-3h-2l-5-9-7-10-2-5-3-1-4-5 2-5 1-2h2z" fill="#B80CDA"/>
<path transform="translate(492,200)" d="m0 0 1 4-3 13-8 16-8 11-10 10-2-1 1-3 1-5 2-1h-8l5-5 8-11 6-12 4-12 2-1-1 5 6-3 2-3z" fill="#B914B3"/>
<path transform="translate(307,305)" d="m0 0h5l1 1v9l9 3 4 2-1 3-14 9h-7l-11-8-3-2v-2h2l1-7-4-2-5-5 6 2 13 7v-7l1-2z" fill="#7B0DB5"/>
<path transform="translate(284,306)" d="m0 0 6 2 9 5 3 7 3 2h4l1 7 4 1-3 2h-7l-11-8-3-2v-2h2l1-7-4-2z" fill="#A012B3"/>
<path transform="translate(499,292)" d="m0 0 6 1 3 3v4l-6 2-11 1-6-3v-2h-3l1-3z" fill="#9F13B0"/>
<path transform="translate(865,228)" d="m0 0h59l38 1v1l-19 1-1 1h-14l-4-1-21-1h-38z" fill="#B912BD"/>
<path transform="translate(556,151)" d="m0 0 2 1v66l-1 23-1 8h-1v-40z" fill="#BA15B3"/>
<path transform="translate(499,315)" d="m0 0h15l2 2v3h-2l-1 4-3 1h-9l-3-1-2-3 1-5z" fill="#9E13B0"/>
<path transform="translate(484,220)" d="m0 0h3l-1 6-6 10-5 2-7-2 5-8h2v-2z" fill="#9F13B0"/>
<path transform="translate(491,185)" d="m0 0 2 4v11l-3 4-2 1-1 2-6 2 4-18 3-3v-2z" fill="#9E13B0"/>
<path transform="translate(308,344)" d="m0 0 12 3-4 4-6 2-9-1-6-4v-1h7v-2z" fill="#7F0CB9"/>
<path transform="translate(389,295)" d="m0 0h40l-2 3 1 3-4 2h-6l-4-4-9-2-16-1z" fill="#B914B5"/>
<path transform="translate(465,276)" d="m0 0 4 4 4 6-1 2-2-1-1 2h-2l-2 5-3 1-5-1 2-5h2v-7l4-3z" fill="#B914B3"/>
<path transform="translate(554,282)" d="m0 0h1l1 6 1 16 2 7v9l-1-2h-2v11l-2 2z" fill="#B913B9"/>
<path transform="translate(565,319)" d="m0 0h1v32h-1l-1-10-4-4-1-3v-9l5 1z" fill="#BA15B3"/>
<path transform="translate(536,161)" d="m0 0h1l2 17h-2l2 6-1 7-1 20h-1z" fill="#BA15B3"/>
<path transform="translate(927,178)" d="m0 0h8l4 3v2l-3 1h-11l-1-3z" fill="#A815F2"/>
<path transform="translate(479,296)" d="m0 0h3v2h3v2l8 2h8l-1 2-16 2-2-4-1-5z" fill="#BA18B4"/>
<path transform="translate(515,281)" d="m0 0 2 4 4 3-1 5-6-2-2-2z" fill="#B80CD8"/>
<path transform="translate(879,212)" d="m0 0 2 2 31 1v1h-34z" fill="#B80CD9"/>
<path transform="translate(509,375)" d="m0 0 5 3-1 5-4 2-1-1v-8z" fill="#B80CDB"/>
<path transform="translate(260,297)" d="m0 0 12 3 5 2-4 1-9-1-4-3z" fill="#A211B7"/>
<path transform="translate(947,182)" d="m0 0 3 3-1 2-2-1-31-1v-1h31z" fill="#BA15B3"/>
<path transform="translate(542,119)" d="m0 0h1l1 9-1 10-2-1v-17z" fill="#9F13B0"/>
<path transform="translate(362,123)" d="m0 0v3l-13 13-2-1 10-11z" fill="#B114B3"/>
<path transform="translate(468,340)" d="m0 0 3 4v2h-2v5l-4 1 1-7-1-4z" fill="#B80CDA"/>
<path transform="translate(512,345)" d="m0 0 6 2-3 5-4-2z" fill="#9E13B0"/>
<path transform="translate(423,137)" d="m0 0h7l10 2v2l-5 1-12-4z" fill="#B714B4"/>
</svg>